<?xml version="1.0" encoding="UTF-8" standalone="no"?>
<!-- Created with Inkscape (http://www.inkscape.org/) -->

<svg
   width="500"
   height="500"
   viewBox="0 0 132.29167 132.29167"
   version="1.1"
   id="svg680"
   inkscape:version="1.1.2 (0a00cf5339, 2022-02-04)"
   sodipodi:docname="logo.svg"
   xmlns:inkscape="http://www.inkscape.org/namespaces/inkscape"
   xmlns:sodipodi="http://sodipodi.sourceforge.net/DTD/sodipodi-0.dtd"
   xmlns="http://www.w3.org/2000/svg"
   xmlns:svg="http://www.w3.org/2000/svg">
  <sodipodi:namedview
     id="namedview682"
     pagecolor="#ffffff"
     bordercolor="#666666"
     borderopacity="1.0"
     inkscape:pageshadow="2"
     inkscape:pageopacity="0.0"
     inkscape:pagecheckerboard="0"
     inkscape:document-units="mm"
     showgrid="false"
     width="500mm"
     units="px"
     inkscape:zoom="0.8374018"
     inkscape:cx="360.04222"
     inkscape:cy="244.20774"
     inkscape:window-width="1312"
     inkscape:window-height="704"
     inkscape:window-x="0"
     inkscape:window-y="0"
     inkscape:window-maximized="1"
     inkscape:current-layer="layer1" />
  <defs
     id="defs677" />
  <g
     inkscape:label="Layer 1"
     inkscape:groupmode="layer"
     id="layer1">
    <g
       id="g1385"
       transform="translate(-23.90204,3.586256)">
      <path
         class="st1"
         d="m 102.86693,52.647435 c -2.38125,1.137709 -4.180412,3.81 -6.297078,4.524375 -5.715,1.508125 -10.662709,-3.836458 -16.642292,-5.423958 -1.693333,1.031875 -3.4925,1.534583 -4.471458,3.069167 1.534583,3.122083 2.143125,3.227916 4.656666,1.11125 0.820209,-0.687917 1.455209,-1.984375 3.01625,-1.613959 -0.343958,1.137709 -1.243541,1.481667 -1.878541,2.090209 -2.778125,2.69875 -2.725209,3.466041 0.396875,5.688541 0.79375,0.555625 1.375833,0.608542 2.143125,0.02646 1.640416,-1.243542 3.4925,-2.248959 4.894791,-3.704167 1.693334,-1.772708 2.936875,-1.322917 4.471459,0.05292 1.905,1.693333 3.757083,3.4925 6.058958,4.7625 1.693335,-1.481667 3.571875,-2.54 4.815415,-4.392084 -0.79375,-2.037291 -3.01625,-2.513541 -3.70417,-4.339166 2.46063,-0.978959 3.65125,4.28625 6.58813,1.322916 -1.00542,-1.693333 -2.91042,-1.799166 -4.04813,-3.175 z"
         id="path56"
         style="fill:#ffc420;stroke-width:0.264583" />
      <path
         class="st2"
         d="m 96.569852,57.17181 c 2.143124,-0.714375 3.942288,-3.386666 6.297078,-4.524375 -0.0529,-0.07937 -0.10583,-0.132291 -0.15875,-0.211666 3.43959,-3.360209 8.20209,-4.1275 12.80584,-6.006042 -5.74146,-2.460625 -18.309169,-0.211666 -22.225002,4.92125 0.3175,1.534583 2.248959,2.06375 2.69875,4.339167 -4.339166,-3.704167 -8.09625,-7.090834 -12.779375,-9.2075 -5.767916,-2.592917 -11.535833,-3.466042 -14.843124,-1.984375 3.862916,2.407708 8.202083,3.862916 11.773958,7.064375 -0.07937,0.05292 -0.185209,0.105833 -0.264584,0.15875 6.0325,1.613958 10.980209,6.958541 16.695209,5.450416 z"
         id="path58"
         style="fill:#00ab11;stroke-width:0.264583" />
      <path
         class="st2"
         d="m 67.889019,2.7999361 c 8.837083,5.5827082 15.081249,13.0704169 19.579166,22.0662499 0.105833,0.238125 0.15875,0.529166 0.3175,0.740833 3.598333,4.841875 2.301875,9.233958 -1.666875,13.731875 C 83.73756,35.687644 79.557143,33.570977 78.604643,28.596811 76.964227,20.130144 73.604018,12.298478 68.788602,5.1282694 68.391727,4.546186 67.809644,4.0434777 67.889019,2.7999361 Z"
         id="path60"
         style="fill:#00ab11;stroke-width:0.264583" />
      <path
         class="st2"
         d="m 91.51631,30.369519 c -1.799167,-2.69875 -2.460625,-5.132917 -1.561042,-8.09625 2.645834,-8.678333 6.588125,-16.536458 13.520212,-22.62187457 0.635,-0.55562499 1.11125,-1.40229163 2.14312,-1.37583333 0.26458,0.6879167 -0.0265,1.27 -0.26458,1.82562499 -2.59292,6.50874991 -3.99521,13.30854191 -4.97417,20.18770791 -0.3175,2.275417 -1.190624,3.96875 -3.095624,5.318125 -1.931458,1.402292 -3.704166,3.042708 -5.767916,4.7625 z"
         id="path62"
         style="fill:#00ab11;stroke-width:0.264583" />
      <path
         class="st2"
         d="m 91.225268,50.18681 c -1.243541,-2.910416 -2.513541,-5.820833 -3.704166,-8.731249 -0.132292,-0.343959 0,-0.899584 0.15875,-1.296459 3.201458,-8.651875 9.101666,-14.525625 17.885828,-17.436041 0.21167,-0.07938 0.50271,0.05292 1.48167,0.15875 -8.625415,7.381875 -10.583332,17.965208 -14.89604,27.304999 -0.3175,0 -0.635,0 -0.926042,0 z"
         id="path64"
         style="fill:#00ab11;stroke-width:0.264583" />
      <path
         class="st2"
         d="M 88.605893,48.043685 C 85.034018,46.403269 81.83256,44.895144 78.631102,43.413477 77.86381,43.069519 77.38756,42.408061 76.990685,41.693686 73.339435,35.105561 68.074227,29.972644 62.14756,25.474727 c -0.343958,-0.264583 -0.661458,-0.608541 -0.9525,-0.926041 -0.02646,-0.02646 0.02646,-0.15875 0.05292,-0.264584 11.668125,1.640417 25.347083,13.626042 27.357916,23.759583 z"
         id="path66"
         style="fill:#00ab11;stroke-width:0.264583" />
      <path
         class="st2"
         d="m 94.744227,48.228894 c 1.11125,-10.689167 15.028333,-23.65375 25.426453,-24.077083 0.0794,0.687916 -0.47625,0.899583 -0.89958,1.190625 -6.00604,4.206875 -10.92729,9.36625 -13.97,16.113125 -1.11125,2.487083 -2.77812,3.942291 -5.344582,4.683125 -1.693333,0.449791 -3.280833,1.269999 -5.212291,2.090208 z"
         id="path68"
         style="fill:#00ab11;stroke-width:0.264583" />
      <path
         class="st2"
         d="M 88.129643,22.828894 C 85.96006,20.368269 84.610685,17.616603 84.160893,14.441603 83.314227,8.5413943 82.15006,2.7205611 80.192143,-3.3383972 c 1.878542,0.47625 2.751667,1.5875 3.65125,2.5664583 1.243542,1.40229165 2.248959,2.9897916 3.518959,4.3656249 5.582708,6.0854166 4.894791,12.461875 0.767291,19.235208 z"
         id="path70"
         style="fill:#00ab11;stroke-width:0.264583" />
      <g
         id="g381"
         transform="matrix(0.26458333,0,0,0.26458333,63.474004,2.9441287)" />
      <path
         class="st2"
         d="M 77.599227,30.237227 C 75.16506,29.099519 72.916102,28.041186 71.619643,26.003894 67.756727,19.865561 64.131935,13.542019 58.072977,8.3297277 65.904644,9.6791026 77.096518,17.193269 77.599227,30.237227 Z"
         id="path72"
         style="fill:#00ab11;stroke-width:0.264583" />
      <path
         class="st1"
         d="m 104.53381,117.73493 c -2.30188,-1.82562 -3.59833,-4.1275 -5.291667,-6.0325 -0.687917,-0.76729 -0.291042,-1.4552 0.370417,-2.0902 1.93146,-1.85209 3.86292,-3.70417 5.76792,-5.55625 0.87312,-0.87313 1.69333,-0.84667 2.51354,0.0264 0.13229,0.1323 0.23812,0.26459 0.37041,0.39688 4.81542,4.92125 4.81542,5.31812 -0.21166,10.08062 -1.08479,1.00542 -2.2225,1.98438 -3.51896,3.175 z"
         id="path74"
         style="fill:#ffc420;stroke-width:0.264583" />
      <path
         class="st1"
         d="m 87.917977,102.12452 c -0.291042,1.69333 -1.666875,2.38125 -2.592917,3.41312 -3.624792,3.99521 -3.889375,3.96875 -7.328958,-0.21166 -0.05292,-0.0794 -0.105834,-0.1323 -0.15875,-0.21167 -3.518959,-4.31271 -3.518959,-4.31271 0.873125,-7.911042 0.687916,-0.555625 1.375833,-1.137708 2.06375,-1.693333 0.661458,-0.555625 1.296458,-0.529167 1.852083,0.132292 1.5875,1.799166 3.175,3.598333 4.709583,5.423953 0.291042,0.3175 0.423334,0.7673 0.582084,1.05834 z"
         id="path76"
         style="fill:#ffc420;stroke-width:0.264583" />
      <path
         class="st1"
         d="m 99.162768,95.351185 c 1.084792,0.105833 1.587502,1.27 2.381252,2.06375 4.23333,4.233335 4.28625,3.466045 0.13229,7.672915 -4.550833,4.60375 -4.418542,4.57729 -8.704792,-0.39687 -1.481666,-1.74625 -1.561041,-2.93688 0.15875,-4.41855 1.349375,-1.137703 2.513542,-2.487078 3.757084,-3.757078 0.582083,-0.582084 1.164166,-1.11125 2.275416,-1.164167 z"
         id="path78"
         style="fill:#ffc420;stroke-width:0.264583" />
      <path
         class="st1"
         d="m 74.133185,116.94118 c -2.487083,-1.95791 -4.524375,-4.18041 -6.455833,-6.48229 -1.322917,-1.5875 -0.07937,-3.59833 3.677708,-6.69396 1.613958,-1.32291 2.354792,-0.21166 3.254375,0.7673 0.291042,0.3175 0.582083,0.66145 0.873125,1.00541 5.265208,5.97959 5.265208,6.0325 -1.349375,11.40354 z"
         id="path80"
         style="fill:#ffc420;stroke-width:0.264583" />
      <path
         class="st1"
         d="m 89.849435,100.56348 c -2.275417,-1.746253 -3.624792,-4.101045 -5.503333,-5.953128 -0.79375,-0.79375 -0.582084,-1.5875 0.291041,-2.248959 0.635,-0.47625 1.27,-0.978958 1.878542,-1.481666 5.000625,-3.942292 5.476875,-3.889375 9.525,1.058333 0.635,0.767292 1.058333,1.508125 0.291042,2.354792 -2.010834,2.2225 -3.995209,4.497916 -6.482292,6.270628 z"
         id="path82"
         style="fill:#ffc420;stroke-width:0.264583" />
      <path
         class="st1"
         d="m 99.374435,77.624102 c -1.164167,-0.02646 -1.74625,-0.873125 -2.434167,-1.561042 -5.159375,-5.212291 -5.847291,-3.4925 0.396875,-8.942916 1.190625,-1.058334 2.090208,-1.164167 3.069167,0.132291 0.37042,0.502709 0.84667,0.899584 1.29646,1.349375 3.86291,3.730625 3.33375,6.50875 -1.64042,8.757708 -0.211665,0.105834 -0.476249,0.185209 -0.687915,0.264584 z"
         id="path84"
         style="fill:#ffc420;stroke-width:0.264583" />
      <path
         class="st1"
         d="m 89.267352,86.143685 c -2.010834,1.640417 -4.048125,3.307292 -6.111875,4.947708 -0.132292,0.105834 -0.3175,0.264584 -0.449792,0.264584 -2.672292,-0.238125 -3.069167,-2.910417 -4.60375,-4.365625 -0.899583,-0.846667 -1.005417,-1.852084 -0.07937,-2.804584 0.132292,-0.132291 0.238125,-0.264583 0.370417,-0.396875 4.339166,-4.841875 6.905625,-4.339166 10.874375,2.354792 z"
         id="path86"
         style="fill:#ffc420;stroke-width:0.264583" />
      <path
         class="st1"
         d="m 102.78756,118.5816 c -0.21167,1.24354 -1.32292,1.66688 -2.11667,2.27542 -4.101038,3.14854 -4.127497,3.12208 -7.752288,-0.52917 -2.8575,-2.91042 -2.883959,-2.93687 0.47625,-5.50333 4.312708,-3.25438 3.095625,-3.83646 7.170208,0.58208 0.84667,0.9525 1.98437,1.74625 2.2225,3.175 z"
         id="path88"
         style="fill:#ffc420;stroke-width:0.264583" />
      <path
         class="st1"
         d="m 95.829018,110.59118 c -0.79375,0.635 -1.508125,1.13771 -2.169583,1.74625 -4.841875,4.31271 -5.027083,4.28625 -9.419167,-0.5027 -1.031875,-1.11125 -1.005416,-1.87855 0.05292,-2.88396 6.19125,-5.82084 4.550833,-6.64104 11.535833,1.64041 z"
         id="path90"
         style="fill:#ffc420;stroke-width:0.264583" />
      <path
         class="st1"
         d="m 84.160893,64.31556 c 1.799167,-1.957916 3.677709,-3.280833 5.476875,-4.683125 1.058334,-0.820208 2.037292,-0.47625 2.910417,0.238125 1.693333,1.402292 3.360208,2.8575 4.7625,4.709584 -1.42875,2.06375 -3.4925,3.307291 -5.344583,4.7625 -0.687917,0.529166 -1.561042,0.529166 -2.2225,-0.05292 -1.878542,-1.5875 -3.677709,-3.254375 -5.582709,-4.974167 z"
         id="path92"
         style="fill:#ffc420;stroke-width:0.264583" />
      <path
         class="st1"
         d="m 97.07256,79.317435 c -0.105833,1.137708 -1.164167,1.508125 -1.878542,2.116667 -3.915833,3.413125 -3.942291,3.386666 -7.672916,-0.211667 -0.502709,-0.502708 -1.005417,-1.031875 -1.534584,-1.481667 -1.27,-1.084791 -1.137708,-1.957916 0.132292,-3.01625 5.450417,-4.444999 3.862917,-4.709583 8.942917,0.15875 0.767291,0.714375 1.74625,1.27 2.010833,2.434167 z"
         id="path94"
         style="fill:#ffc420;stroke-width:0.264583" />
      <path
         class="st2"
         d="m 102.68173,22.035144 c 5.05354,-6.402916 11.05958,-11.350625 19.34104,-13.043958 -3.54542,3.677708 -6.85271,7.646458 -10.74209,10.900833 -2.2225,1.852083 -5.5827,1.719792 -8.59895,2.143125 z"
         id="path96"
         style="fill:#00ab11;stroke-width:0.264583" />
      <path
         class="st1"
         d="m 75.16506,87.043268 c 5.847292,5.132917 5.582708,7.911042 -0.79375,11.58875 -0.555625,0.3175 -1.084792,0.555625 -1.74625,0.291042 -2.460625,-1.031875 -3.518958,-4.947708 -1.825625,-7.011458 1.375833,-1.613959 2.831042,-3.175 4.365625,-4.868334 z"
         id="path98"
         style="fill:#ffc420;stroke-width:0.264583" />
      <path
         class="st1"
         d="m 82.996727,76.354102 c -1.534584,-0.635 -2.513542,-2.037292 -3.624792,-3.280833 -0.767292,-0.873125 -2.460625,-1.719792 -1.640417,-2.989792 1.164167,-1.825625 2.804584,-3.545417 4.894792,-4.233333 1.084792,-0.370417 2.010833,1.190625 2.910417,2.037291 4.418541,4.1275 4.101041,3.227917 -0.238125,7.064375 -0.635,0.555625 -1.217084,1.27 -2.301875,1.402292 z"
         id="path100"
         style="fill:#ffc420;stroke-width:0.264583" />
      <path
         class="st1"
         d="m 68.206519,92.070352 c -4.7625,-4.180417 -4.28625,-8.228542 1.481666,-13.149792 1.613958,1.481667 2.592917,3.4925 3.889375,5.212292 0.396875,0.529166 0.423333,1.217083 -0.02646,1.74625 -1.772709,2.090208 -3.545417,4.1275 -5.344583,6.19125 z"
         id="path102"
         style="fill:#ffc420;stroke-width:0.264583" />
      <path
         class="st1"
         d="m 87.177143,117.47035 c -0.3175,0.39688 -0.582083,0.84667 -0.9525,1.21708 -0.978958,0.92605 -2.06375,1.7198 -2.963333,2.69875 -1.402292,1.56105 -2.619375,1.29646 -4.1275,0.10584 -4.180417,-3.28084 -4.206875,-3.25438 -0.449792,-7.03792 2.751667,-2.75167 2.751667,-2.77812 5.55625,-0.13229 1.058334,0.92604 2.407709,1.5875 2.936875,3.14854 z"
         id="path104"
         style="fill:#ffc420;stroke-width:0.264583" />
      <path
         class="st1"
         d="m 110.48693,94.95431 c -0.68791,1.561042 -1.79916,3.175 -3.33375,4.153958 -1.40229,0.899582 -1.98437,-0.978958 -2.93687,-1.640416 -0.21167,-0.15875 -0.37042,-0.370417 -0.55563,-0.555625 -3.704162,-3.862917 -3.65125,-4.7625 0.60855,-8.228542 0.42333,-0.343958 0.79375,-0.714375 1.40229,-0.502708 0.92604,0.291041 4.84187,5.635625 4.81541,6.773333 z"
         id="path106"
         style="fill:#ffc420;stroke-width:0.264583" />
      <path
         class="st1"
         d="M 75.614852,83.550768 C 73.815685,81.751602 72.78381,79.767227 71.51381,77.96806 c -0.396875,-0.555625 -0.423333,-1.190625 0.07937,-1.719792 1.402292,-1.42875 2.38125,-3.307291 4.418542,-4.286249 1.931458,1.904999 3.757083,3.783541 5.23875,5.847291 -1.905,1.931458 -3.677709,3.757083 -5.635625,5.741458 z"
         id="path108"
         style="fill:#ffc420;stroke-width:0.264583" />
      <path
         class="st1"
         d="m 103.26381,86.275977 c -0.0529,1.243541 -3.704167,5.106458 -4.736042,5.000625 -0.820208,-0.07937 -5.132916,-4.418542 -5.159375,-5.185834 -0.02646,-0.899583 4.630208,-5.000625 5.635625,-4.947708 1.190622,0.105833 4.312712,3.836458 4.259792,5.132917 z"
         id="path110"
         style="fill:#ffc420;stroke-width:0.264583" />
      <path
         class="st1"
         d="m 105.35402,59.738269 c 1.53458,1.74625 2.80458,3.307291 4.20687,4.788958 1.29646,1.349375 1.37584,2.54 -0.0794,3.81 -0.92604,0.79375 -1.42875,2.037292 -2.35479,2.434167 -2.24896,-2.037292 -4.36563,-3.96875 -6.61459,-6.006042 1.27,-1.957917 2.96334,-3.307292 4.84188,-5.027083 z"
         id="path112"
         style="fill:#ffc420;stroke-width:0.264583" />
      <path
         class="st1"
         d="m 111.88923,92.943477 c -1.5875,-2.06375 -3.04271,-3.96875 -4.47146,-5.847292 -0.55563,-0.714375 -0.55563,-1.455208 0,-2.196042 1.16416,-1.534583 2.30187,-3.095625 3.43958,-4.656666 5.3975,5.000625 5.60917,7.540625 1.03188,12.7 z"
         id="path114"
         style="fill:#ffc420;stroke-width:0.264583" />
      <path
         class="st1"
         d="m 113.13277,112.17868 c 2.43416,2.38125 2.61937,3.96875 0.89958,6.37646 -1.05833,1.48167 -2.56646,2.43417 -4.15396,3.28084 -1.16416,0.635 -2.14312,0.66145 -2.96333,-0.58209 -0.79375,-1.16416 -1.08479,-2.24896 0.0794,-3.33375 1.98438,-1.87854 3.99521,-3.73062 6.13834,-5.74146 z"
         id="path116"
         style="fill:#ffc420;stroke-width:0.264583" />
      <path
         class="st1"
         d="m 113.37089,108.60681 c -1.56104,-1.98438 -3.01625,-3.86292 -4.47146,-5.715 -0.79375,-1.03188 -0.58208,-1.98438 0.23813,-2.8575 0.87312,-0.9525 1.40229,-2.248958 2.64583,-2.831042 4.47146,3.836462 5.23875,8.519582 1.5875,11.403542 z"
         id="path118"
         style="fill:#ffc420;stroke-width:0.264583" />
      <path
         class="st2"
         d="m 60.189644,36.322644 c 7.249583,-2.116667 13.969999,0.529167 15.266458,6.0325 -2.725209,0.555625 -11.509375,-2.936875 -15.266458,-6.0325 z"
         id="path120"
         style="fill:#00ab11;stroke-width:0.264583" />
      <path
         class="st1"
         d="m 67.915477,96.515352 c 1.349375,0.9525 1.957917,2.169583 2.751667,3.201458 0.449791,0.58208 0.820208,1.34937 0.291041,1.95792 -1.534583,1.85208 -3.122083,3.62479 -4.7625,5.3975 -0.529166,0.55562 -1.190625,0.29104 -1.613958,-0.29105 -0.767292,-1.05833 -1.905,-1.95791 -1.190625,-3.54541 1.11125,-2.43417 2.487083,-4.683127 4.524375,-6.720418 z"
         id="path122"
         style="fill:#ffc420;stroke-width:0.264583" />
      <path
         class="st1"
         d="m 106.43881,73.99931 c 0.82021,1.005417 1.32292,1.74625 1.93146,2.328333 1.64041,1.561042 1.29646,2.910417 -0.0529,4.550834 -3.04271,3.730625 -4.33917,3.677708 -6.93208,-0.529167 -0.44979,-0.714375 -0.52917,-1.296458 0.10583,-1.878542 1.56104,-1.402291 3.14854,-2.804583 4.94771,-4.471458 z"
         id="path124"
         style="fill:#ffc420;stroke-width:0.264583" />
      <path
         class="st1"
         d="m 63.232352,88.180977 c 3.942292,5.212291 3.757083,7.540625 -0.926042,13.202703 -2.54,-4.180412 -2.275416,-8.704787 0.926042,-13.202703 z"
         id="path126"
         style="fill:#ffc420;stroke-width:0.264583" />
      <path
         class="st1"
         d="m 116.75756,84.979518 c -4.78896,-5.87375 -4.92125,-7.223125 -1.13771,-11.906249 4.31271,4.656666 4.55083,7.037916 1.13771,11.906249 z"
         id="path128"
         style="fill:#ffc420;stroke-width:0.264583" />
      <path
         class="st1"
         d="m 83.499435,123.68806 c 3.624792,-4.97417 6.482292,-4.84188 10.4775,0.50271 -3.730625,3.33375 -6.561667,3.20146 -10.4775,-0.50271 z"
         id="path130"
         style="fill:#ffc420;stroke-width:0.264583" />
      <path
         class="st1"
         d="m 116.54589,89.71556 c 3.73063,4.365625 2.51354,8.704792 0.84667,13.67896 -1.45521,-2.98979 -3.14854,-5.450418 -3.75708,-8.175627 -0.42334,-1.957916 1.56104,-3.704166 2.91041,-5.503333 z"
         id="path132"
         style="fill:#ffc420;stroke-width:0.264583" />
      <path
         class="st1"
         d="m 65.110894,111.17327 c 2.301875,2.19604 4.365625,4.15396 6.429374,6.08541 0.899584,0.87313 0.767292,1.66688 0,2.54 -0.687916,0.79375 -1.269999,1.37584 -2.460624,0.7673 -2.619375,-1.29646 -4.259792,-3.41313 -5.371042,-6.00605 -0.714375,-1.5875 0.3175,-2.43416 1.402292,-3.38666 z"
         id="path134"
         style="fill:#ffc420;stroke-width:0.264583" />
      <path
         class="st2"
         d="m 105.80381,43.730977 c 1.19062,-5.23875 2.59292,-6.482291 7.19667,-6.535208 2.54,-0.02646 5.13291,-0.185208 7.69937,0.79375 -5.13292,1.322917 -9.94833,3.33375 -14.89604,5.741458 z"
         id="path136"
         style="fill:#00ab11;stroke-width:0.264583" />
      <path
         class="st1"
         d="m 73.26006,65.188685 c 4.418542,-5.450416 4.709583,-5.476875 7.805208,-1.084791 -0.79375,0.767291 -1.613958,1.534583 -2.460625,2.301875 -3.01625,2.778125 -3.254375,2.725208 -5.344583,-1.217084 z"
         id="path138"
         style="fill:#ffc420;stroke-width:0.264583" />
      <path
         class="st1"
         d="m 63.523394,83.68306 c -2.407709,-4.28625 -1.957917,-5.794375 2.804583,-9.974792 2.328333,1.613959 2.513542,2.513542 1.005417,4.577292 -1.243542,1.719792 -2.434167,3.466042 -3.81,5.3975 z"
         id="path140"
         style="fill:#ffc420;stroke-width:0.264583" />
      <path
         class="st1"
         d="m 111.80985,68.046185 c 3.54542,2.751667 3.41313,4.497917 -0.635,8.175625 -4.04812,-4.206875 -4.28625,-3.33375 0.635,-8.175625 z"
         id="path142"
         style="fill:#ffc420;stroke-width:0.264583" />
      <path
         class="st1"
         d="m 99.586101,126.86306 c -0.873125,0.10583 -1.613958,-0.0794 -1.984375,-0.92604 -0.476249,-1.08479 0.529167,-1.34938 1.11125,-1.77271 1.296454,-0.92604 2.698754,-1.71979 3.968754,-2.69875 1.24354,-0.9525 2.06375,-0.55563 2.8575,0.58208 0.79375,1.13771 0.5027,1.905 -0.58209,2.67229 -1.48166,1.00542 -4.02166,2.11667 -5.371039,2.14313 z"
         id="path144"
         style="fill:#ffc420;stroke-width:0.264583" />
      <path
         class="st1"
         d="m 70.058602,74.898893 c -2.910417,-3.174999 -2.645833,-4.074583 1.931458,-7.911041 2.831042,2.407708 2.8575,2.8575 0.529167,5.291667 -0.79375,0.820208 -1.561042,1.666874 -2.460625,2.619374 z"
         id="path146"
         style="fill:#ffc420;stroke-width:0.264583" />
      <path
         class="st1"
         d="m 68.788602,60.055769 c 2.619375,4.92125 2.38125,5.926666 -1.852083,8.810625 -2.037292,-2.672292 -1.508125,-5.371042 1.852083,-8.810625 z"
         id="path148"
         style="fill:#ffc420;stroke-width:0.264583" />
      <path
         class="st1"
         d="m 77.281727,125.48723 c -1.613959,0 -3.042709,-0.84667 -4.418542,-1.87855 -0.846667,-0.66145 -1.481667,-1.32291 -0.635,-2.43416 0.714375,-0.92604 1.5875,-1.53459 2.725208,-0.82021 1.217084,0.74083 2.328334,1.61396 3.4925,2.43417 0.608542,0.44979 1.534584,0.84666 1.031875,1.85208 -0.370416,0.79375 -1.11125,1.08479 -2.196041,0.84667 z"
         id="path150"
         style="fill:#ffc420;stroke-width:0.264583" />
      <path
         class="st1"
         d="m 76.408602,59.103269 c -1.42875,1.375833 -2.778125,2.645833 -4.101042,3.915833 -2.619375,-2.8575 -2.778125,-4.101042 -0.873125,-5.635625 2.354792,-1.878542 2.645833,-1.799167 4.974167,1.719792 z"
         id="path152"
         style="fill:#ffc420;stroke-width:0.264583" />
      <path
         class="st1"
         d="m 112.04798,63.707019 c -1.87855,-1.243542 -3.12209,-2.963334 -4.5773,-4.445 -0.635,-0.661459 -0.52916,-1.508125 0.1323,-2.143125 0.71437,-0.687917 1.32291,-0.07937 1.85208,0.370416 1.00542,0.846667 2.06375,1.693334 2.93687,2.645834 1.0848,1.190625 0.82021,2.38125 -0.34395,3.571875 z"
         id="path154"
         style="fill:#ffc420;stroke-width:0.264583" />
      <path
         class="st2"
         d="m 109.03173,22.987644 c -1.48167,4.60375 -5.08,7.540625 -8.51959,10.556875 1.66688,-4.497917 4.89479,-7.672917 8.51959,-10.556875 z"
         id="path156"
         style="fill:#00ab11;stroke-width:0.264583" />
      <path
         class="st1"
         d="m 119.9061,82.757018 c 1.77271,3.069167 1.32292,5.688542 -0.0794,8.387292 -2.48709,-2.963333 -2.48709,-4.048125 0.0794,-8.387292 z"
         id="path158"
         style="fill:#ffc420;stroke-width:0.264583" />
      <path
         class="st1"
         d="m 62.015269,76.089518 c -0.661459,-3.122083 0.582083,-5.635624 2.54,-8.149166 2.778125,4.1275 -1.693334,5.529791 -2.54,8.149166 z"
         id="path160"
         style="fill:#ffc420;stroke-width:0.264583" />
      <path
         class="st1"
         d="m 60.639435,81.195977 c 1.825625,2.831041 2.010834,5.212291 -0.291041,7.725833 -0.9525,-2.619375 -1.031875,-4.974167 0.291041,-7.725833 z"
         id="path162"
         style="fill:#ffc420;stroke-width:0.264583" />
      <path
         class="st1"
         d="m 116.75756,113.58098 c -2.40771,-2.43417 -2.38125,-2.96334 0.15875,-5.42396 0.9525,1.79916 0.87312,3.43958 -0.15875,5.42396 z"
         id="path164"
         style="fill:#ffc420;stroke-width:0.264583" />
      <path
         class="st1"
         d="m 115.75214,69.422019 c -1.64041,-2.301875 -3.65125,-3.730625 -1.21708,-6.19125 1.05833,1.74625 1.87854,3.413125 1.21708,6.19125 z"
         id="path166"
         style="fill:#ffc420;stroke-width:0.264583" />
      <path
         class="st1"
         d="m 86.383393,127.92139 c -2.275416,0.47625 -3.624791,-0.34396 -5.000625,-0.76729 -0.661458,-0.21167 -1.005416,-0.79375 -0.608541,-1.48167 0.3175,-0.52916 0.873125,-0.58208 1.402291,-0.26458 1.190625,0.74083 2.407709,1.45521 4.206875,2.51354 z"
         id="path168"
         style="fill:#ffc420;stroke-width:0.264583" />
      <path
         class="st1"
         d="m 119.53568,75.930768 c -1.08479,-1.878541 -2.83104,-3.386666 -2.64583,-5.767916 2.14313,1.349375 2.46063,3.571875 2.64583,5.767916 z"
         id="path170"
         style="fill:#ffc420;stroke-width:0.264583" />
      <path
         class="st1"
         d="m 91.04006,127.89493 c 1.349375,-0.71437 2.407708,-1.29645 3.4925,-1.85208 0.635,-0.3175 1.243542,-0.29104 1.5875,0.37042 0.396875,0.74083 -0.07937,1.16416 -0.714375,1.40229 -1.296458,0.50271 -2.619375,1.11125 -4.365625,0.0794 z"
         id="path172"
         style="fill:#ffc420;stroke-width:0.264583" />
      <path
         class="st1"
         d="m 62.809019,111.14681 c -1.666875,-1.32292 -1.799167,-2.69875 -0.9525,-4.31271 2.169583,1.61396 2.275416,2.01083 0.9525,4.31271 z"
         id="path174"
         style="fill:#ffc420;stroke-width:0.264583" />
    </g>
  </g>
</svg>
