<?xml version="1.0" encoding="UTF-8" standalone="no"?>
<svg
   id="svg"
   version="1.1"
   width="80"
   height="80"
   viewBox="0 0 80 80"
   sodipodi:docname="user.svg"
   inkscape:version="1.1.2 (0a00cf5339, 2022-02-04)"
   xmlns:inkscape="http://www.inkscape.org/namespaces/inkscape"
   xmlns:sodipodi="http://sodipodi.sourceforge.net/DTD/sodipodi-0.dtd"
   xmlns="http://www.w3.org/2000/svg"
   xmlns:svg="http://www.w3.org/2000/svg">
  <defs
     id="defs8" />
  <sodipodi:namedview
     id="namedview6"
     pagecolor="#ffffff"
     bordercolor="#666666"
     borderopacity="1.0"
     inkscape:pageshadow="2"
     inkscape:pageopacity="0.0"
     inkscape:pagecheckerboard="0"
     showgrid="false"
     inkscape:zoom="6.6468037"
     inkscape:cx="86.282072"
     inkscape:cy="26.554116"
     inkscape:window-width="1312"
     inkscape:window-height="704"
     inkscape:window-x="0"
     inkscape:window-y="0"
     inkscape:window-maximized="1"
     inkscape:current-layer="svg" />
  <path
     id="path1"
     d="m 36.338507,0.11517092 c -2.293886,0.227318 -3.912221,0.510345 -6.403329,1.11972898 -0.804898,0.196795 -3.164525,0.938301 -3.841997,1.207454 -0.117395,0.04653 -0.482384,0.188898 -0.811088,0.316538 -0.328704,0.127426 -0.839477,0.342792 -1.135097,0.478542 -0.29562,0.135751 -0.555382,0.246955 -0.577153,0.246955 -0.123798,0 -3.429623,1.704993 -3.709235,1.912887 -0.07044,0.05251 -0.262536,0.169048 -0.426889,0.259122 -2.080013,1.139792 -5.456062,3.791838 -7.726682,6.0697141 -3.717772,3.729726 -6.442816,7.767451 -8.583021,12.718505 -0.173317,0.400848 -0.601913,1.510332 -0.907139,2.347887 -0.390389,1.071704 -1.153239,3.765371 -1.31759101,4.653086 -0.04354,0.234788 -0.136818,0.715038 -0.207468,1.067221 -0.93638,4.66888 -0.921439,10.33732 0.04012,15.154544 0.265525,1.3304 0.88920801,3.813609 1.00489501,4.000797 0.02539,0.04119 0.07556,0.195088 0.111632,0.342156 1.517588,6.205034 7.258599,14.549431 13.316362,19.354909 1.174797,0.932112 2.837101,2.128897 2.95663,2.128897 0.02369,0 0.168834,0.09605 0.322728,0.213445 0.154107,0.117392 0.301169,0.213445 0.327423,0.213445 0.02604,0 0.25293,0.138737 0.504155,0.308428 0.251224,0.169471 0.533611,0.342998 0.627525,0.385475 0.09392,0.04246 0.343646,0.176095 0.554956,0.296905 0.637985,0.364563 2.570296,1.341067 3.160469,1.597415 0.304372,0.132333 0.630302,0.274275 0.724217,0.315682 0.09392,0.0414 0.478115,0.195943 0.853777,0.343218 0.375662,0.147495 0.759861,0.302244 0.853777,0.343863 0.219421,0.09733 1.32677,0.475551 1.87831,0.641824 0.80874,0.243328 0.940649,0.281537 1.430504,0.413019 0.27022,0.07254 0.712049,0.193164 0.981843,0.267872 0.269794,0.07467 0.663385,0.168187 0.874695,0.20768 0.211309,0.0395 0.691559,0.135751 1.067222,0.213657 0.918236,0.190824 2.047784,0.363918 3.030908,0.464666 0.446099,0.04588 1.080028,0.122731 1.408732,0.170975 0.764771,0.112264 6.055842,0.114611 6.787528,0.003 0.305225,-0.04656 0.919945,-0.122944 1.366046,-0.169904 0.446097,-0.04694 1.137656,-0.140658 1.536799,-0.208537 0.399143,-0.06791 0.860183,-0.145991 1.024533,-0.173953 0.796362,-0.135105 2.827708,-0.628166 3.67124,-0.89113 0.117396,-0.03646 0.443967,-0.133617 0.725714,-0.215792 0.281746,-0.08239 0.646735,-0.199992 0.811085,-0.261901 0.164354,-0.06168 0.586972,-0.214288 0.939156,-0.338949 0.352185,-0.124646 0.717173,-0.26061 0.81109,-0.302229 0.09391,-0.04163 0.516535,-0.214304 0.939152,-0.383774 0.664238,-0.266596 3.775617,-1.771163 4.140821,-2.002322 0.404904,-0.256348 1.290268,-0.769037 1.328476,-0.769037 0.02457,0 0.09114,-0.0395 0.147919,-0.08752 0.05677,-0.04824 0.58334,-0.403835 1.170313,-0.790382 3.283197,-2.162403 6.003122,-4.600791 8.472882,-7.595633 0.242052,-0.293699 0.46339,-0.553033 0.49221,-0.576512 0.02864,-0.02349 0.299464,-0.369257 0.602126,-0.768185 4.761937,-6.281022 7.447922,-13.131304 8.141833,-20.764926 0.285373,-3.139126 0.202126,-6.869918 -0.20512,-9.202865 -0.04505,-0.258267 -0.142793,-0.853777 -0.217076,-1.323354 -0.138098,-0.872346 -0.217501,-1.264017 -0.424117,-2.091754 -0.06449,-0.258267 -0.182065,-0.738517 -0.261248,-1.067221 -0.185483,-0.7684 -0.262752,-1.027735 -0.902441,-3.030909 -0.150913,-0.472566 -0.834569,-2.217686 -1.062743,-2.71309 -0.113981,-0.247809 -0.207474,-0.467443 -0.207474,-0.487934 0,-0.11526 -1.481726,-2.99505 -1.884923,-3.663344 -0.08793,-0.145569 -0.242691,-0.417284 -0.344069,-0.60362 -0.193596,-0.356239 -1.268714,-2.020892 -1.352385,-2.094316 -0.02689,-0.02348 -0.148346,-0.196369 -0.270007,-0.3842 -2.10648,-3.251824 -6.526703,-7.5717211 -10.435506,-10.1985801 -0.772242,-0.518883 -1.432853,-0.94321 -1.46871,-0.94321 -0.02349,0 -0.205122,-0.104375 -0.403837,-0.232014 -1.00447,-0.645029 -3.857366,-2.071263 -5.184991,-2.592068 -0.352184,-0.138312 -0.707139,-0.289217 -0.788678,-0.335748 -0.08153,-0.04653 -0.190814,-0.08452 -0.243108,-0.08452 -0.0523,0 -0.216008,-0.0555 -0.364137,-0.12337 -0.315041,-0.144251 -2.073609,-0.719483 -2.872956,-0.939544 -0.305226,-0.08388 -0.727848,-0.201705 -0.939157,-0.261683 -0.642466,-0.182281 -2.297939,-0.53510498 -3.201665,-0.68238098 -1.663157,-0.271074 -1.888126,-0.302664 -2.817466,-0.396153 -1.444378,-0.145142 -6.276757,-0.162217 -7.641305,-0.0269 m 6.915594,0.89326498 c 1.743628,0.159869 3.863342,0.476408 5.079977,0.759008 0.187829,0.04354 0.59124,0.136604 0.896466,0.206828 0.87747,0.201704 1.800191,0.470217 3.244355,0.944277 3.577749,1.17437 7.914724,3.442215 10.714901,5.603125 0.281747,0.217287 0.573953,0.431157 0.649295,0.475127 0.137244,0.08004 0.415154,0.310775 1.776711,1.4751131 1.347046,1.152172 3.474659,3.325034 4.402289,4.495776 0.186121,0.23479 0.473841,0.585264 0.639689,0.778859 0.281962,0.329131 0.644816,0.818559 1.606599,2.166673 1.430717,2.005736 3.443711,5.866516 4.340174,8.324328 2.317799,6.354235 3.0228,12.70591 2.118012,19.081919 -0.245676,1.731677 -0.287728,1.955363 -0.683664,3.6499 -1.205316,5.157664 -3.554486,10.155036 -6.812289,14.492863 -1.482797,1.974149 -1.600834,2.058458 -1.764972,1.257828 -0.749826,-3.659288 -3.526951,-6.498949 -8.363599,-8.551431 -0.258267,-0.109497 -0.700096,-0.304159 -0.981842,-0.432651 -0.281747,-0.128282 -0.607892,-0.263176 -0.725073,-0.299891 -0.116966,-0.03673 -0.449723,-0.176303 -0.73937,-0.31056 -0.289856,-0.134043 -0.550258,-0.243756 -0.578646,-0.243756 -0.305651,0 -8.213338,-3.764516 -8.720695,-4.151275 -1.008738,-0.769466 -1.347046,-1.761984 -1.546828,-4.537399 l -0.05079,-0.705861 0.503089,-0.534249 c 1.97756,-2.099868 3.311371,-4.333776 3.789489,-6.345915 0.09904,-0.41707 0.199145,-0.822827 0.222409,-0.902015 0.03991,-0.135751 0.496256,-0.343646 0.975865,-0.444605 0.77651,-0.163711 1.187391,-0.921865 1.485363,-2.741265 0.123157,-0.751324 0.278114,-1.692613 0.344284,-2.091754 0.325929,-1.962193 0.322298,-1.912034 0.176092,-2.414695 -0.150479,-0.518029 -0.685583,-1.105855 -1.15559,-1.26978 -0.330408,-0.115259 -0.354529,-0.232014 -0.245248,-1.182481 0.270221,-2.351302 0.164992,-4.690866 -0.282172,-6.274836 -0.268301,-0.950467 -1.495606,-3.48896 -1.887701,-3.904536 -0.05635,-0.05955 -0.217499,-0.28068 -0.35837,-0.491349 -0.330839,-0.494551 -2.15515,-2.328037 -2.817465,-2.831338 -4.049042,-3.077013 -7.583039,-3.546163 -10.992171,-1.458891 -0.451221,0.276196 -0.528915,0.296473 -0.969038,0.25101 -3.903255,-0.402983 -8.497643,3.08427 -9.876493,7.49595 -0.754312,2.413201 -0.970318,4.530568 -0.731047,7.165965 l 0.100318,1.104361 -0.2064,0.12892 c -1.125064,0.703085 -1.388882,1.695175 -0.933178,3.510945 0.04119,0.164351 0.09904,0.490922 0.128493,0.72571 0.0873,0.692841 0.299249,2.005309 0.424755,2.629421 0.180146,0.896039 0.737023,1.501793 1.586104,1.72591 0.540868,0.142581 0.729552,0.304798 0.79017,0.67918 0.173318,1.067862 1.900508,4.778804 2.445005,5.253503 0.0269,0.02348 0.216859,0.2683 0.422193,0.54407 0.205119,0.275984 0.637131,0.807674 0.959859,1.181842 0.636277,0.737667 0.626245,0.704579 0.502234,1.618974 -0.04653,0.343859 -0.117608,0.995292 -0.157949,1.447797 -0.158161,1.770945 -0.748336,2.496444 -2.871679,3.529727 -2.426221,1.180558 -3.504328,1.69069 -4.697695,2.222809 -0.140874,0.06275 -0.486653,0.217926 -0.7684,0.344925 -0.281746,0.126784 -1.203825,0.509066 -2.049065,0.849507 -7.166604,2.887046 -10.554819,5.82084 -11.007534,9.531144 -0.08004,0.655913 -0.21814,0.845876 -0.452075,0.621763 C 9.409316,64.452022 6.451191,60.227959 6.000824,59.236083 5.968804,59.165653 5.861231,58.973548 5.761553,58.809198 5.465292,58.31998 4.151115,55.652568 4.151115,55.540512 c 0,-0.02709 -0.110137,-0.291991 -0.24482,-0.58868 C 3.313774,53.646194 2.589557,51.476105 2.073449,49.460338 1.877294,48.694288 1.799814,48.333137 1.505261,46.813631 0.55521999,41.914013 0.78445899,35.253057 2.066192,30.506482 c 0.07599,-0.281746 0.190605,-0.728698 0.254639,-0.993369 0.06382,-0.264457 0.307573,-1.055055 0.541294,-1.756433 0.386761,-1.160497 0.475341,-1.407452 0.69775,-1.945972 0.03885,-0.09392 0.209602,-0.516534 0.379504,-0.939154 2.448633,-6.090206 7.030427,-11.930042 12.804949,-16.3214441 1.763477,-1.341071 5.145927,-3.34147 6.969382,-4.122249 0.252291,-0.108003 0.612158,-0.265525 0.799989,-0.350263 0.312909,-0.141086 0.828164,-0.349194 2.219821,-0.896251 0.281747,-0.110778 0.915676,-0.321661 1.408732,-0.46851 0.493056,-0.14685 0.992516,-0.300103 1.109911,-0.340658 0.232013,-0.08004 0.896679,-0.249517 1.83562,-0.468296 0.328704,-0.07663 0.732114,-0.175025 0.896466,-0.218994 0.704366,-0.187832 3.385227,-0.55773 4.86653,-0.671496 0.680887,-0.05251 1.372446,-0.10992398 1.536799,-0.12785298 0.53852,-0.0587 3.775829,0.02305 4.866529,0.12294398 m 0.211737,11.5289781 c 3.242433,0.819625 6.889342,3.857578 8.298074,6.912607 0.05422,0.117394 0.214941,0.463174 0.357309,0.768399 0.508851,1.0907 0.633501,1.540214 0.818344,2.948306 0.199997,1.52634 0.178868,2.283641 -0.136602,4.863755 -0.173532,1.418978 -0.205548,1.319086 0.477471,1.491976 1.123784,0.284307 1.234563,0.646308 0.850789,2.77691 -0.06766,0.375662 -0.1778,1.009591 -0.244606,1.408732 -0.06702,0.399141 -0.168408,1.004256 -0.225395,1.344699 -0.172251,1.027094 -0.533402,1.387387 -1.391445,1.387387 -0.713546,0 -0.768825,0.05614 -0.937233,0.952176 -0.483026,2.567521 -1.671057,4.714984 -3.875721,7.004814 l -0.714828,0.742359 0.05443,0.709063 c 0.293062,3.828767 0.883446,5.19801 2.612989,6.062035 0.724,0.361787 4.362374,2.117364 4.387986,2.117364 0.01257,0 0.421341,0.187829 0.90842,0.417072 1.194007,0.562636 1.68621,0.783127 2.59292,1.160925 0.422617,0.176302 0.902868,0.380142 1.067218,0.453139 0.164356,0.073 0.471715,0.198931 0.683024,0.280254 3.547872,1.362415 6.645801,3.376259 8.001816,5.201848 1.13638,1.529755 1.881299,4.083833 1.440106,4.937182 -0.132759,0.256561 -2.406155,2.503912 -3.081069,3.045634 -0.233935,0.18783 -0.502662,0.41387 -0.597001,0.502449 -0.505438,0.473849 -3.342114,2.50648 -4.227053,3.02899 -0.258267,0.152395 -0.642467,0.383342 -0.853776,0.513335 -0.805755,0.4954 -2.645004,1.451204 -3.799306,1.974573 -0.627529,0.284302 -0.752605,0.338736 -1.23798,0.537665 -0.164351,0.06723 -0.582274,0.242682 -0.928908,0.389957 -0.346424,0.14707 -0.672138,0.267454 -0.72379,0.267454 -0.05165,0 -0.3445,0.08964 -0.650793,0.199141 -0.761141,0.272354 -1.926974,0.624322 -2.733792,0.825386 -0.211313,0.05272 -0.576302,0.147274 -0.81109,0.210452 -0.752389,0.202142 -1.387812,0.319746 -3.244355,0.601275 -1.091554,0.165635 -1.161777,0.172897 -3.415109,0.353678 -1.126985,0.0905 -2.055895,0.117824 -2.732087,0.08026 -1.69304,-0.09413 -3.953842,-0.294557 -4.951907,-0.439271 -0.516535,-0.07475 -1.156228,-0.166919 -1.421539,-0.204695 -0.265311,-0.03775 -0.521017,-0.09263 -0.568402,-0.12188 -0.04717,-0.02925 -0.310348,-0.08901 -0.584837,-0.132759 -0.274276,-0.04398 -0.72934,-0.142155 -1.011086,-0.218352 -0.281746,-0.07621 -0.723576,-0.190611 -0.981844,-0.254213 -0.258267,-0.06381 -0.604047,-0.156026 -0.768399,-0.20512 -0.164352,-0.04907 -0.490922,-0.14514 -0.725711,-0.213445 -0.742786,-0.216005 -1.940635,-0.636704 -2.475953,-0.86936 -0.140873,-0.06123 -0.525073,-0.214933 -0.853777,-0.341296 -0.790171,-0.303733 -3.733141,-1.740633 -4.414028,-2.155149 -0.295834,-0.180143 -0.59551,-0.355167 -0.665947,-0.389319 -0.231373,-0.111634 -0.984405,-0.589107 -1.878308,-1.19102 -1.893891,-1.274897 -3.77028,-2.823438 -5.517748,-4.553832 l -1.227091,-1.215137 0.0015,-0.453574 c 0.0094,-2.867409 1.822814,-5.604832 4.950413,-7.472681 0.919731,-0.549196 2.00104,-1.112258 3.001666,-1.562838 1.359,-0.611949 1.462734,-0.656558 2.163685,-0.93318 0.375662,-0.148345 0.759861,-0.302666 0.853777,-0.343217 0.09392,-0.04032 0.47534,-0.195945 0.8478,-0.345783 0.372247,-0.149838 0.737237,-0.30501 0.811089,-0.345136 0.186763,-0.101386 1.291124,-0.592523 1.332106,-0.592523 0.03543,0 1.011939,-0.463389 3.398886,-1.612787 0.791025,-0.380783 1.454623,-0.692411 1.4749,-0.692411 0.169688,0 1.229013,-0.795295 1.572017,-1.180136 0.811942,-0.910978 1.024961,-1.532741 1.233709,-3.601018 0.219634,-2.172648 0.249516,-2.020677 -0.579502,-2.933152 -0.631795,-0.695401 -1.852056,-2.277665 -1.852056,-2.401675 0,-0.02604 -0.08986,-0.190606 -0.199784,-0.365843 -0.743006,-1.18364 -1.363702,-2.688849 -1.768605,-4.288613 -0.225184,-0.88921 -0.154961,-0.822188 -0.977149,-0.932539 -0.956656,-0.12828 -1.160496,-0.348981 -1.355157,-1.465722 -0.238631,-1.368604 -0.294767,-1.71225 -0.437988,-2.681714 -0.07641,-0.516535 -0.174384,-1.09817 -0.2175,-1.292618 -0.155601,-0.69839 0.186124,-1.229226 0.937447,-1.455904 0.648658,-0.195728 0.643749,-0.186763 0.483239,-0.894972 -0.431585,-1.90435 -0.350689,-5.018502 0.174597,-6.723708 0.06404,-0.207895 0.116541,-0.441403 0.116541,-0.518883 0,-0.58249 0.902229,-2.589079 1.61129,-3.58309 1.817265,-2.54831 4.330785,-3.94573 7.159349,-3.980308 l 1.299875,-0.01579 0.407679,-0.288576 c 0.565841,-0.400849 1.344912,-0.789744 1.901575,-0.949187 1.434133,-0.411307 2.266565,-0.424541 3.712223,-0.05891"
     stroke="none"
     fill="#22a4eb"
     fill-rule="evenodd"
     style="stroke-width:1;stroke-miterlimit:4;stroke-dasharray:none;fill:#000000;fill-opacity:1;stroke:#000000;stroke-opacity:1" />
</svg>
